C:/Program Files/Krita (x64)/bin/ffmpeg.exe -hide_banner -y -y -r 24 -start_number 0 -start_number_range 1 -i C:/neddy/pics/frame%04d.png -i C:/neddy/pics/KritaTempPalettegen_%06d.png -lavfi [0:v][1:v]paletteuse=dither=sierra2_4a:diff_mode=none -f gif -loop 0 -gifflags +transdiff C:/neddy/pics/ani1.gif
=====================================================
Input #0, image2, from 'C:/neddy/pics/frame%04d.png':
  Duration: 00:00:05.84, start: 0.000000, bitrate: N/A
  Stream #0:0: Video: png, rgba(pc), 3000x2480 [SAR 11811:11811 DAR 75:62], 25 fps, 25 tbr, 25 tbn, 25 tbc
Input #1, image2, from 'C:/neddy/pics/KritaTempPalettegen_%06d.png':
  Duration: 00:00:00.04, start: 0.000000, bitrate: N/A
  Stream #1:0: Video: png, rgba(pc), 16x16 [SAR 1:1 DAR 1:1], 25 fps, 25 tbr, 25 tbn, 25 tbc
Stream mapping:
  Stream #0:0 (png) -> paletteuse:default
  Stream #1:0 (png) -> paletteuse:palette
  paletteuse -> Stream #0:0 (gif)
Press [q] to stop, [?] for help
[image2 @ 00000191caa79dc0] Thread message queue blocking; consider raising the thread_queue_size option (current value: 8)
Output #0, gif, to 'C:/neddy/pics/ani1.gif':
  Metadata:
    encoder         : Lavf58.76.100
  Stream #0:0: Video: gif, pal8(pc, gbr/unknown/unknown, progressive), 3000x2480 [SAR 1:1 DAR 75:62], q=2-31, 200 kb/s, 24 fps, 100 tbn (default)
    Metadata:
      encoder         : Lavc58.134.100 gif
frame=    1 fps=0.0 q=-0.0 size=       0kB time=00:00:00.01 bitrate=   0.0kbits/s speed=0.0696x    frame=    2 fps=0.0 q=-0.0 size=      23kB time=00:00:00.05 bitrate=3838.7kbits/s speed=0.0687x    frame=    5 fps=4.1 q=-0.0 size=      48kB time=00:00:00.18 bitrate=2201.5kbits/s speed=0.146x    frame=    8 fps=4.2 q=-0.0 size=      76kB time=00:00:00.30 bitrate=2086.3kbits/s speed=0.157x    frame=   11 fps=4.2 q=-0.0 size=     112kB time=00:00:00.43 bitrate=2134.1kbits/s speed=0.163x    frame=   14 fps=4.2 q=-0.0 size=     149kB time=00:00:00.55 bitrate=2219.2kbits/s speed=0.165x    frame=   17 fps=4.2 q=-0.0 size=     187kB time=00:00:00.68 bitrate=2252.4kbits/s speed=0.169x    frame=   20 fps=4.2 q=-0.0 size=     225kB time=00:00:00.80 bitrate=2307.5kbits/s speed=0.17x    frame=   23 fps=4.2 q=-0.0 size=     256kB time=00:00:00.93 bitrate=2255.0kbits/s speed=0.172x    frame=   26 fps=4.3 q=-0.0 size=     256kB time=00:00:01.05 bitrate=1997.3kbits/s speed=0.172x    frame=   29 fps=4.3 q=-0.0 size=     256kB time=00:00:01.18 bitrate=1777.2kbits/s speed=0.174x    frame=   32 fps=4.3 q=-0.0 size=     256kB time=00:00:01.30 bitrate=1613.2kbits/s speed=0.174x    frame=   35 fps=4.3 q=-0.0 size=     256kB time=00:00:01.43 bitrate=1466.5kbits/s speed=0.175x    frame=   38 fps=4.3 q=-0.0 size=     256kB time=00:00:01.55 bitrate=1353.0kbits/s speed=0.175x    frame=   41 fps=4.3 q=-0.0 size=     256kB time=00:00:01.68 bitrate=1248.3kbits/s speed=0.176x    frame=   44 fps=4.3 q=-0.0 size=     512kB time=00:00:01.80 bitrate=2330.2kbits/s speed=0.176x    frame=   47 fps=4.3 q=-0.0 size=     512kB time=00:00:01.93 bitrate=2173.2kbits/s speed=0.177x    frame=   50 fps=4.3 q=-0.0 size=     512kB time=00:00:02.05 bitrate=2046.0kbits/s speed=0.176x    frame=   53 fps=4.3 q=-0.0 size=     512kB time=00:00:02.18 bitrate=1924.0kbits/s speed=0.177x    frame=   56 fps=4.3 q=-0.0 size=     512kB time=00:00:02.30 bitrate=1823.6kbits/s speed=0.176x    frame=   59 fps=4.3 q=-0.0 size=     512kB time=00:00:02.43 bitrate=1726.1kbits/s speed=0.177x    frame=   62 fps=4.3 q=-0.0 size=     512kB time=00:00:02.55 bitrate=1644.8kbits/s speed=0.177x    frame=   65 fps=4.3 q=-0.0 size=     512kB time=00:00:02.68 bitrate=1565.0kbits/s speed=0.178x    frame=   68 fps=4.3 q=-0.0 size=     512kB time=00:00:02.80 bitrate=1498.0kbits/s speed=0.178x    frame=   71 fps=4.3 q=-0.0 size=     768kB time=00:00:02.93 bitrate=2147.3kbits/s speed=0.178x    frame=   74 fps=4.3 q=-0.0 size=     768kB time=00:00:03.05 bitrate=2062.8kbits/s speed=0.178x    frame=   77 fps=4.3 q=-0.0 size=     768kB time=00:00:03.18 bitrate=1978.4kbits/s speed=0.178x    frame=   80 fps=4.3 q=-0.0 size=     768kB time=00:00:03.30 bitrate=1906.5kbits/s speed=0.178x    frame=   83 fps=4.3 q=-0.0 size=     768kB time=00:00:03.43 bitrate=1834.2kbits/s speed=0.178x    frame=   86 fps=4.3 q=-0.0 size=     768kB time=00:00:03.55 bitrate=1772.2kbits/s speed=0.178x    frame=   89 fps=4.3 q=-0.0 size=     768kB time=00:00:03.68 bitrate=1709.6kbits/s speed=0.179x    frame=   92 fps=4.3 q=-0.0 size=    1024kB time=00:00:03.80 bitrate=2207.5kbits/s speed=0.178x    frame=   95 fps=4.3 q=-0.0 size=    1024kB time=00:00:03.93 bitrate=2134.5kbits/s speed=0.179x    frame=   98 fps=4.3 q=-0.0 size=    1024kB time=00:00:04.05 bitrate=2071.3kbits/s speed=0.178x    frame=  101 fps=4.3 q=-0.0 size=    1024kB time=00:00:04.18 bitrate=2006.8kbits/s speed=0.179x    frame=  104 fps=4.3 q=-0.0 size=    1024kB time=00:00:04.30 bitrate=1950.8kbits/s speed=0.178x    frame=  107 fps=4.3 q=-0.0 size=    1024kB time=00:00:04.43 bitrate=1893.6kbits/s speed=0.179x    frame=  110 fps=4.3 q=-0.0 size=    1024kB time=00:00:04.55 bitrate=1843.7kbits/s speed=0.178x    frame=  113 fps=4.3 q=-0.0 size=    1024kB time=00:00:04.68 bitrate=1792.4kbits/s speed=0.178x    frame=  116 fps=4.3 q=-0.0 size=    1280kB time=00:00:04.80 bitrate=2184.5kbits/s speed=0.178x    frame=  119 fps=4.3 q=-0.0 size=    1280kB time=00:00:04.93 bitrate=2126.9kbits/s speed=0.178x    frame=  122 fps=4.3 q=-0.0 size=    1280kB time=00:00:05.05 bitrate=2076.4kbits/s speed=0.178x    frame=  125 fps=4.3 q=-0.0 size=    1280kB time=00:00:05.18 bitrate=2024.3kbits/s speed=0.178x    frame=  128 fps=4.3 q=-0.0 size=    1280kB time=00:00:05.30 bitrate=1978.4kbits/s speed=0.178x    frame=  131 fps=4.3 q=-0.0 size=    1280kB time=00:00:05.43 bitrate=1931.1kbits/s speed=0.178x    frame=  134 fps=4.3 q=-0.0 size=    1280kB time=00:00:05.55 bitrate=1889.3kbits/s speed=0.178x    frame=  137 fps=4.3 q=-0.0 size=    1280kB time=00:00:05.68 bitrate=1846.1kbits/s speed=0.178x    frame=  139 fps=4.3 q=-0.0 size=    1280kB time=00:00:05.76 bitrate=1820.4kbits/s speed=0.178x    frame=  142 fps=4.3 q=-0.0 size=    1280kB time=00:00:05.89 bitrate=1780.3kbits/s speed=0.178x    frame=  144 fps=4.3 q=-0.0 size=    1280kB time=00:00:05.97 bitrate=1756.4kbits/s speed=0.177x    frame=  146 fps=4.2 q=-0.0 size=    1280kB time=00:00:06.05 bitrate=1733.2kbits/s speed=0.176x    frame=  146 fps=4.2 q=-0.0 Lsize=    1523kB time=00:00:06.05 bitrate=2062.0kbits/s speed=0.176x    
video:1523kB audio:0kB subtitle:0kB other streams:0kB global headers:0kB muxing overhead: 0.001283%
